<?xml version="1.0" encoding="UTF-8" standalone="no"?>
<!-- Created with Inkscape (http://www.inkscape.org/) -->

<svg
   width="84.873169mm"
   height="84.958405mm"
   viewBox="0 0 84.873169 84.958405"
   version="1.1"
   id="svg5"
   xml:space="preserve"
   xmlns:xlink="http://www.w3.org/1999/xlink"
   xmlns="http://www.w3.org/2000/svg"
   xmlns:svg="http://www.w3.org/2000/svg"><defs
     id="defs2"><linearGradient
       id="linearGradient6455"><stop
         style="stop-color:#732383;stop-opacity:1;"
         offset="0.32860044"
         id="stop6451" /><stop
         style="stop-color:#832350;stop-opacity:1;"
         offset="0.92494929"
         id="stop6453" /></linearGradient><linearGradient
       id="linearGradient5930"><stop
         style="stop-color:#be9f9f;stop-opacity:1;"
         offset="0.14401622"
         id="stop5926" /><stop
         style="stop-color:#b94b4b;stop-opacity:1;"
         offset="0.88438135"
         id="stop5928" /></linearGradient><linearGradient
       id="linearGradient4855"><stop
         style="stop-color:#470452;stop-opacity:1;"
         offset="0.31339714"
         id="stop4851" /><stop
         style="stop-color:#530505;stop-opacity:0.71372551;"
         offset="1"
         id="stop4859" /><stop
         style="stop-color:#470452;stop-opacity:0;"
         offset="1"
         id="stop4853" /></linearGradient><linearGradient
       xlink:href="#linearGradient4855"
       id="linearGradient4857"
       x1="3.1717715"
       y1="-27.343985"
       x2="50.189873"
       y2="-27.343985"
       gradientUnits="userSpaceOnUse"
       gradientTransform="matrix(0.90558156,0,0,0.95424604,0.29947371,-2.2747461)" /><linearGradient
       xlink:href="#linearGradient5930"
       id="linearGradient6362"
       gradientUnits="userSpaceOnUse"
       gradientTransform="matrix(0.97448831,0,0,1.0268557,0.45315406,1.4282412)"
       x1="5.1889706"
       y1="-26.962048"
       x2="39.06097"
       y2="-26.962048" /><linearGradient
       xlink:href="#linearGradient5930"
       id="linearGradient6364"
       gradientUnits="userSpaceOnUse"
       gradientTransform="matrix(0.97448831,0,0,1.0268557,2.3143359,1.3351821)"
       x1="5.1889706"
       y1="-26.962048"
       x2="39.06097"
       y2="-26.962048" /><linearGradient
       xlink:href="#linearGradient6455"
       id="linearGradient6457"
       x1="10.09969"
       y1="-28.136429"
       x2="45.82748"
       y2="-28.136429"
       gradientUnits="userSpaceOnUse" /></defs><g
     id="layer1"
     transform="translate(-54.466619,-112.59927)"><g
       style="fill:#000000"
       id="g150"
       transform="matrix(1.9897257,0,0,1.9897257,48.155664,211.52228)"><rect
         style="fill:url(#linearGradient4857);fill-opacity:1;stroke-width:0.0820867;stop-color:#000000"
         id="rect1023"
         width="42.578728"
         height="42.698555"
         x="3.1717715"
         y="-49.716911"
         ry="1.6258762" /><path
         d="m 31.806474,-12.708346 q 0.176749,0.51218 0.176749,0.838112 0.02209,0.302651 -0.154655,0.465618 -0.176749,0.162966 -0.596529,0.209528 -0.397684,0.04656 -1.082587,0.04656 -0.684902,0 -1.104681,-0.04656 -0.397685,-0.02328 -0.618621,-0.09313 -0.198843,-0.09313 -0.309311,-0.232809 -0.08838,-0.139685 -0.176749,-0.349213 l -2.452393,-7.333483 H 13.601328 l -2.341923,7.24036 q -0.06628,0.209527 -0.176749,0.372494 -0.110468,0.139685 -0.331404,0.256089 -0.198844,0.09313 -0.596529,0.139686 -0.3755911,0.04656 -0.9942125,0.04656 -0.6407151,0 -1.060494,-0.06985 -0.3976852,-0.04656 -0.5744342,-0.209528 -0.1546554,-0.162966 -0.1546554,-0.465618 0.022093,-0.325932 0.1988427,-0.838112 l 9.5886324,-27.983641 q 0.08838,-0.256089 0.220936,-0.419056 0.154656,-0.162966 0.419779,-0.256089 0.287217,-0.09313 0.706996,-0.116404 0.441872,-0.04656 1.104681,-0.04656 0.706996,0 1.170962,0.04656 0.463966,0.02328 0.751183,0.116404 0.287218,0.09313 0.441873,0.279371 0.154655,0.162965 0.243029,0.419056 z M 19.500326,-37.40938 h -0.02209 l -4.926878,15.01618 h 9.942131 z"
         style="font-weight:normal;font-size:46.4476px;font-family:Calibri;-inkscape-font-specification:'Calibri, Normal';fill:url(#linearGradient6364);stroke-width:0.241915"
         id="path6353" /><path
         d="m 42.683057,-39.219073 -5.026823,-0.796909 1.466452,-2.042081 -6.080874,-4.89103 -1.545624,2.151655 c -2.516957,-1.566426 -5.105996,-2.243798 -7.017938,-2.0371 v 0.0012 c -0.272966,0.0274 -0.531751,0.09712 -0.775175,0.160627 -0.76336,0.201717 -1.356558,0.571533 -1.731148,1.092015 l 6.395199,5.14131 -1.426276,1.986049 1.201759,0.966251 C 21.67651,-29.104549 14.26744,-21.921159 10.09969,-12.244935 l 3.663177,2.9211712 C 21.615063,-16.512135 25.825354,-25.438766 31.886138,-34.477462 l 1.136767,0.913955 1.466453,-2.04208 2.095101,4.879826 3.14206,2.504038 c 3.860516,-1.70962 5.579845,-4.735385 6.100962,-8.497047 l -3.14206,-2.505283 z"
         id="path141"
         style="fill:url(#linearGradient6457);fill-opacity:1;stroke-width:1.213" /><path
         d="m 38.517617,-11.800456 q 0,0.186247 -0.08838,0.325932 -0.08838,0.139686 -0.309311,0.232809 -0.220936,0.06985 -0.596527,0.116405 -0.353498,0.06985 -0.905839,0.06985 -0.530247,0 -0.905839,-0.06985 -0.375591,-0.04656 -0.596528,-0.116405 -0.220936,-0.09312 -0.30931,-0.232809 -0.08838,-0.139685 -0.08838,-0.325932 v -28.914876 q 0,-0.186248 0.08838,-0.325933 0.110468,-0.139685 0.331404,-0.209528 0.24303,-0.09313 0.596528,-0.139685 0.375591,-0.06984 0.883745,-0.06984 0.552341,0 0.905839,0.06984 0.375591,0.04656 0.596527,0.139685 0.220936,0.06985 0.309311,0.209528 0.08838,0.139685 0.08838,0.325933 z"
         style="font-weight:normal;font-size:46.4476px;font-family:Calibri;-inkscape-font-specification:'Calibri, Normal';fill:url(#linearGradient6362);stroke-width:0.241915"
         id="path6355" /></g></g>
         
  </svg>
